<svg xmlns="http://www.w3.org/2000/svg" viewBox="0 0 500 500">
  <style>
    .st0{fill:#f8f9fa}.st1{fill:#e9ecef}.st2{fill:#dee2e6}.st3{fill:#FEE12B}.st4{fill:#2A52BE}.st5{fill:#CE1126}.st6{fill:#333}.st7{fill:#6c757d}
  </style>
  <g id="freepik--background-complete--inject-2">
    <path class="st1" d="M46.5 232.2c-1.8 6.3-.8 13 2.7 18.6 6.7 10.9 21.1 14.3 32.1 7.5 1.5-.9 2.8-2 4-3.2 2.9 4.8 7.5 8.5 13 10.3 11.9 3.9 24.9-2.6 28.8-14.5.5-1.6.9-3.2 1-4.9 5.3 1.5 11 1.2 16.1-.9 10.9-4.5 16.4-16.7 12.3-27.7-3.1-8.3-10.9-13.7-19.7-13.8-1.9 0-3.8.2-5.6.7-1.5-11.5-10.9-20.4-22.5-21.3-13.1-1-24.9 8.8-25.9 21.9 0 .8-.1 1.6-.1 2.4-12.3-1.3-23.5 7.1-25.9 19.3-.3 1.9-.4 3.8-.3 5.6z"/>
    <path class="st1" d="M425.6 176.4c-1.4 4.9-.6 10.1 2.1 14.4 5.2 8.4 16.3 11 24.7 5.8 1.1-.7 2.2-1.5 3.1-2.5 2.2 3.7 5.8 6.6 10 8 9.2 3 19.2-2 22.2-11.2.4-1.2.7-2.5.8-3.8 4.1 1.2 8.5.9 12.4-.7 8.4-3.5 12.6-12.9 9.5-21.3-2.4-6.4-8.4-10.6-15.2-10.6-1.5 0-2.9.2-4.3.5-1.2-8.9-8.4-15.7-17.3-16.4-10.1-.8-19.2 6.8-20 16.9 0 .6-.1 1.2-.1 1.9-9.5-1-18.1 5.5-20 14.9-.2 1.4-.3 2.9-.2 4.3l-7.7-.2z"/>
    <path class="st2" d="M52.7 355.3c43.2 29.8 94.3 45.7 146.6 45.7 52.3 0 103.4-15.9 146.6-45.7H52.7z"/>
  </g>
  <g id="freepik--404--inject-2">
    <path class="st3" d="M130.5 214.1v-13.7l34.5-51.2h22.5v51.2h10.7v13.7h-10.7v18.2h-16.9v-18.2h-40.1zm40.1-13.7v-29.8l-20.1 29.8h20.1zM222.8 214.1v-13.7l34.5-51.2h22.5v51.2h10.7v13.7h-10.7v18.2h-16.9v-18.2h-40.1zm40.1-13.7v-29.8l-20.1 29.8h20.1z"/>
    <path class="st4" d="M315.1 232.3c-17.9 0-32.4-14.5-32.4-32.4v-18.2c0-17.9 14.5-32.4 32.4-32.4s32.4 14.5 32.4 32.4v18.2c0 17.9-14.5 32.4-32.4 32.4zm0-69.3c-10.3 0-18.7 8.4-18.7 18.7v18.2c0 10.3 8.4 18.7 18.7 18.7s18.7-8.4 18.7-18.7v-18.2c0-10.3-8.4-18.7-18.7-18.7z"/>
  </g>
  <g id="freepik--Character--inject-2">
    <path class="st5" d="M279.6 294.6s-5.5 42.8-5.9 46.3c-.4 3.5-2.4 9.1-2.4 9.1s-4.3.8-4.7-1.2c-.4-2 1.6-10.2 1.6-10.2s2-37.7 2-40.5c-.1-2.7 9.4-3.5 9.4-3.5z"/>
    <path class="st6" d="M271.3 350c-.4-2 1.6-10.2 1.6-10.2s2-37.7 2-40.5c0-2.4 7.5-3.3 9.1-3.5-1.3.2-7.5 1-7.5 3.1 0 2.8-2 40.5-2 40.5s-2 8.3-1.6 10.2c.4 2 4.7 1.2 4.7 1.2s.1 0 .3-.1c-.8.3-5.9 1.4-6.6-0.7z"/>
    <path class="st3" d="M290.2 294.6s-5.5 42.8-5.9 46.3c-.4 3.5-2.4 9.1-2.4 9.1s-4.3.8-4.7-1.2c-.4-2 1.6-10.2 1.6-10.2s2-37.7 2-40.5c-.1-2.7 9.4-3.5 9.4-3.5z"/>
    <path class="st6" d="M281.9 350c-.4-2 1.6-10.2 1.6-10.2s2-37.7 2-40.5c0-2.4 7.5-3.3 9.1-3.5-1.3.2-7.5 1-7.5 3.1 0 2.8-2 40.5-2 40.5s-2 8.3-1.6 10.2c.4 2 4.7 1.2 4.7 1.2s.1 0 .3-.1c-.8.3-5.9 1.4-6.6-0.7z"/>
    <path class="st7" d="M296.5 188.5s-5.9 4.3-9.8 11.8c-3.9 7.5-15.7 31-15.7 31l-7.1-1.2s2.7-26.1 6.3-36.5c3.5-10.2 9.1-14.9 9.1-14.9l17.2 9.8z"/>
    <path class="st6" d="M271 231.3l-7.1-1.2s2.7-26.1 6.3-36.5c3.5-10.2 9.1-14.9 9.1-14.9l17.2 9.8s-5.9 4.3-9.8 11.8c-3.9 7.5-15.7 31-15.7 31z"/>
    <path class="st7" d="M296.5 188.5s-5.9 4.3-9.8 11.8c-3.9 7.5-15.7 31-15.7 31l-7.1-1.2s2.7-26.1 6.3-36.5c3.5-10.2 9.1-14.9 9.1-14.9l17.2 9.8z"/>
    <path class="st6" d="M271 231.3l-7.1-1.2s2.7-26.1 6.3-36.5c3.5-10.2 9.1-14.9 9.1-14.9l17.2 9.8s-5.9 4.3-9.8 11.8c-3.9 7.5-15.7 31-15.7 31z"/>
    <path class="st3" d="M330.7 355.3h-20.8s-1.2-13.7-2-17.7c-.8-3.9-3.9-6.7-3.9-6.7s-48.1-29.8-52.8-32.6c-4.7-2.7-31.4-20.4-31.4-20.4l8.6-13.7s35.3 16.9 40.9 19.6c5.5 2.7 56.7 28.6 56.7 28.6s4.7 43 4.7 42.9z"/>
    <path class="st6" d="M309.9 355.3h-20.8s-1.2-13.7-2-17.7c-.8-3.9-3.9-6.7-3.9-6.7s-48.1-29.8-52.8-32.6c-4.7-2.7-31.4-20.4-31.4-20.4l8.6-13.7s35.3 16.9 40.9 19.6c5.5 2.7 56.7 28.6 56.7 28.6s4.7 43 4.7 42.9z"/>
    <path class="st3" d="M330.7 355.3h-20.8s-1.2-13.7-2-17.7c-.8-3.9-3.9-6.7-3.9-6.7s-48.1-29.8-52.8-32.6c-4.7-2.7-31.4-20.4-31.4-20.4l8.6-13.7s35.3 16.9 40.9 19.6c5.5 2.7 56.7 28.6 56.7 28.6s4.7 43 4.7 42.9z"/>
    <path class="st6" d="M228.4 264.2l8.6-13.7s35.3 16.9 40.9 19.6c5.5 2.7 56.7 28.6 56.7 28.6s4.7 43 4.7 42.9h-8.6c0 .1-4.7-42.8-4.7-42.9 0 0-51.2-25.9-56.7-28.6-5.5-2.7-40.9-19.6-40.9-19.6l-8.6 13.7s26.7 17.7 31.4 20.4c4.7 2.7 52.8 32.6 52.8 32.6s3.1 2.7 3.9 6.7c.8 3.9 2 17.7 2 17.7h8.6s-1.2-13.7-2-17.7c-.8-3.9-3.9-6.7-3.9-6.7s-48.1-29.8-52.8-32.6c-4.7-2.6-31.4-20.4-31.4-20.4z"/>
    <path class="st7" d="M330.7 355.3h-20.8s-1.2-13.7-2-17.7c-.8-3.9-3.9-6.7-3.9-6.7s-48.1-29.8-52.8-32.6c-4.7-2.7-31.4-20.4-31.4-20.4l8.6-13.7s35.3 16.9 40.9 19.6c5.5 2.7 56.7 28.6 56.7 28.6s4.7 43 4.7 42.9z"/>
    <path class="st6" d="M330.7 355.3h-20.8s-1.2-13.7-2-17.7c-.8-3.9-3.9-6.7-3.9-6.7s-48.1-29.8-52.8-32.6c-4.7-2.7-31.4-20.4-31.4-20.4l8.6-13.7s35.3 16.9 40.9 19.6c5.5 2.7 56.7 28.6 56.7 28.6s4.7 43 4.7 42.9z"/>
    <path class="st3" d="M267.8 188.5s-2 18.1-2 20c0 2-2.4 85.8-2.4 85.8h10.6s10.6-73.2 11-75.2 7.5-14.9 7.5-14.9l-24.7-15.7z"/>
    <path class="st6" d="M267.8 188.5s-2 18.1-2 20c0 2-2.4 85.8-2.4 85.8h10.6s10.6-73.2 11-75.2 7.5-14.9 7.5-14.9l-24.7-15.7z"/>
    <path class="st3" d="M267.8 188.5s-2 18.1-2 20c0 2-2.4 85.8-2.4 85.8h10.6s10.6-73.2 11-75.2 7.5-14.9 7.5-14.9l-24.7-15.7z"/>
    <path class="st6" d="M265.8 208.5c0 2-2.4 85.8-2.4 85.8h10.6s10.6-73.2 11-75.2 7.5-14.9 7.5-14.9l-24.7-15.7s-2 18.1-2 20zm2 85.8s2.4-83.8 2.4-85.8c0-1.9 2-20 2-20l24.7 15.7s-7.1 12.9-7.5 14.9c-.4 2-11 75.2-11 75.2h-10.6z"/>
    <path class="st7" d="M267.8 188.5s-2 18.1-2 20c0 2-2.4 85.8-2.4 85.8h10.6s10.6-73.2 11-75.2 7.5-14.9 7.5-14.9l-24.7-15.7z"/>
    <path class="st6" d="M267.8 188.5s-2 18.1-2 20c0 2-2.4 85.8-2.4 85.8h10.6s10.6-73.2 11-75.2 7.5-14.9 7.5-14.9l-24.7-15.7z"/>
    <path class="st3" d="M308.3 355.3h-20.8s-1.2-13.7-2-17.7c-.8-3.9-3.9-6.7-3.9-6.7s-48.1-29.8-52.8-32.6c-4.7-2.7-31.4-20.4-31.4-20.4l8.6-13.7s35.3 16.9 40.9 19.6c5.5 2.7 56.7 28.6 56.7 28.6s4.7 43 4.7 42.9z"/>
    <path class="st6" d="M308.3 355.3h-20.8s-1.2-13.7-2-17.7c-.8-3.9-3.9-6.7-3.9-6.7s-48.1-29.8-52.8-32.6c-4.7-2.7-31.4-20.4-31.4-20.4l8.6-13.7s35.3 16.9 40.9 19.6c5.5 2.7 56.7 28.6 56.7 28.6s4.7 43 4.7 42.9z"/>
    <path class="st3" d="M308.3 355.3h-20.8s-1.2-13.7-2-17.7c-.8-3.9-3.9-6.7-3.9-6.7s-48.1-29.8-52.8-32.6c-4.7-2.7-31.4-20.4-31.4-20.4l8.6-13.7s35.3 16.9 40.9 19.6c5.5 2.7 56.7 28.6 56.7 28.6s4.7 43 4.7 42.9z"/>
    <path class="st6" d="M308.3 355.3h-20.8s-1.2-13.7-2-17.7c-.8-3.9-3.9-6.7-3.9-6.7s-48.1-29.8-52.8-32.6c-4.7-2.7-31.4-20.4-31.4-20.4l8.6-13.7s35.3 16.9 40.9 19.6c5.5 2.7 56.7 28.6 56.7 28.6s4.7 43 4.7 42.9z"/>
    <path class="st7" d="M308.3 355.3h-20.8s-1.2-13.7-2-17.7c-.8-3.9-3.9-6.7-3.9-6.7s-48.1-29.8-52.8-32.6c-4.7-2.7-31.4-20.4-31.4-20.4l8.6-13.7s35.3 16.9 40.9 19.6c5.5 2.7 56.7 28.6 56.7 28.6s4.7 43 4.7 42.9z"/>
    <path class="st6" d="M308.3 355.3h-20.8s-1.2-13.7-2-17.7c-.8-3.9-3.9-6.7-3.9-6.7s-48.1-29.8-52.8-32.6c-4.7-2.7-31.4-20.4-31.4-20.4l8.6-13.7s35.3 16.9 40.9 19.6c5.5 2.7 56.7 28.6 56.7 28.6s4.7 43 4.7 42.9z"/>
  </g>
</svg>
